<svg width="82" height="78" viewBox="0 0 82 78" fill="none" xmlns="http://www.w3.org/2000/svg">
<path d="M35.0307 28.8597C27.9015 24.6433 30.5533 14.0752 38.2689 13.736C39.8573 13.2232 42.857 14.6622 44.031 15.741C47.239 18.6889 47.638 23.7323 44.6231 26.9707C45.7076 26.8242 47.6422 26.2335 48.5919 26.3173C50.4593 26.4822 50.4484 28.8874 50.7445 30.2616C52.1808 29.9526 53.5452 29.1605 54.8298 29.9973C55.5034 29.4989 56.2528 29.1182 56.9701 28.6887C58.9787 27.4859 61.126 25.9792 63.1483 24.9058C64.6306 24.1191 64.6645 25.7607 64.891 26.7396C65.7582 30.4872 66.5925 34.2656 67.3306 38.0401C67.5233 39.0252 68.199 40.2771 66.8953 40.747C64.004 40.0388 61.0884 39.1716 58.1848 38.4223C54.7954 37.5479 55.8804 37.6874 52.4201 38.5841C52.403 40.9911 51.0583 41.0769 49.0589 41.4687C47.4498 41.7837 45.8399 42.0778 44.2235 42.3524C44.6504 45.1494 45.3441 45.0253 42.4121 45.58C41.4465 45.7628 40.4792 45.9388 39.5166 46.1376L43.7119 55.6524C44.042 56.4212 45.3604 58.9803 45.1628 59.5942C45.0353 59.9904 44.5516 60.1897 44.1687 60.0582C43.6368 59.8756 43.4427 59.0152 43.2439 58.5567L42.1347 55.9727C40.7418 52.7989 39.3778 49.6104 37.9212 46.4652C37.4588 46.5733 36.9954 46.6504 36.5267 46.7242C36.1333 47.3141 35.8334 47.992 35.5129 48.6249C34.4879 50.7099 33.3873 52.761 32.35 54.8403L30.9351 57.6597C30.6693 58.1956 30.0416 59.8956 29.3989 60.037C28.729 60.1844 28.274 59.4683 28.5075 58.8865C29.3198 56.8624 30.7814 54.3355 31.7905 52.3619L33.2465 49.5C33.6605 48.6741 34.0321 47.8403 34.5643 47.0812C31.537 47.5144 31.7321 48.2921 31.1714 44.901L28.0363 45.5136C23.673 46.382 23.8365 45.5333 23.0646 41.8803L21.6512 35.3803C21.3943 34.2234 21.1968 33.6588 21.4526 32.4777C19.9419 32.3449 18.4255 31.6301 17.2602 30.6746C11.6391 26.0647 14.6504 16.9219 21.689 16.3038C26.1232 15.9143 30.0344 19.119 30.3818 23.5872C30.5964 26.3477 29.6978 28.2214 27.9378 30.2616C29.761 29.7882 33.1459 29.0201 35.0307 28.8597ZM38.2218 15.3638C38.1184 15.372 38.0153 15.3826 37.9123 15.3957C37.8094 15.4089 37.7069 15.4245 37.6048 15.4426C37.5028 15.4607 37.4012 15.4813 37.3001 15.5045C37.199 15.5275 37.0984 15.553 36.9985 15.581C36.8987 15.609 36.7996 15.6394 36.7012 15.6723C36.6028 15.7051 36.5053 15.7403 36.4086 15.7779C36.3119 15.8155 36.2162 15.8555 36.1215 15.8977C36.0268 15.9399 35.9332 15.9845 35.8407 16.0314C35.7482 16.0783 35.6568 16.1273 35.5667 16.1786C35.4765 16.2298 35.3876 16.2833 35.3002 16.3389C35.2126 16.3945 35.1265 16.4523 35.0417 16.5122C34.957 16.572 34.8739 16.6338 34.7922 16.6978C34.7105 16.7616 34.6304 16.8275 34.5519 16.8953C34.4734 16.9631 34.3965 17.0327 34.3215 17.1043C34.2464 17.1758 34.1731 17.2492 34.1016 17.3243C34.0302 17.3995 33.9605 17.4763 33.8927 17.5548C33.825 17.6334 33.7593 17.7135 33.6954 17.7952C33.6316 17.877 33.5698 17.9603 33.51 18.045C33.4502 18.1297 33.3925 18.2159 33.337 18.3035C33.2814 18.3911 33.2279 18.4799 33.1767 18.57C33.1255 18.6602 33.0765 18.7516 33.0297 18.8442C32.9829 18.9368 32.9384 19.0304 32.8963 19.1251C32.8541 19.2199 32.8142 19.3157 32.7766 19.4123C32.7391 19.509 32.704 19.6065 32.6712 19.7049C32.6385 19.8033 32.6081 19.9025 32.5803 20.0023C32.5523 20.1022 32.5268 20.2028 32.5037 20.3039C32.4808 20.405 32.4603 20.5066 32.4422 20.6088C32.4241 20.7109 32.4085 20.8134 32.3954 20.9163C32.3824 21.0192 32.3719 21.1224 32.3639 21.2257C32.3558 21.3292 32.3503 21.4328 32.3474 21.5364C32.3444 21.6401 32.3439 21.7438 32.346 21.8475C32.3481 21.9511 32.3527 22.0547 32.3599 22.1582C32.367 22.2616 32.3767 22.3649 32.3889 22.4679C32.401 22.5708 32.4157 22.6734 32.4329 22.7757C32.4501 22.878 32.4698 22.9798 32.492 23.0811C32.5142 23.1825 32.5388 23.2832 32.5658 23.3834C32.593 23.4834 32.6225 23.5828 32.6544 23.6816C32.6863 23.7802 32.7207 23.878 32.7574 23.975C32.7941 24.072 32.8331 24.1681 32.8745 24.2631C32.9159 24.3582 32.9596 24.4523 33.0056 24.5453C33.0517 24.6382 33.0999 24.7299 33.1503 24.8206C33.2008 24.9111 33.2534 25.0005 33.3082 25.0885C33.3631 25.1766 33.42 25.2633 33.4791 25.3485C33.5381 25.4338 33.5992 25.5175 33.6623 25.5998C33.7255 25.6821 33.7906 25.7628 33.8577 25.8419C33.9247 25.9209 33.9937 25.9983 34.0646 26.0741C34.1355 26.1498 34.2081 26.2238 34.2826 26.296C34.3571 26.3681 34.4333 26.4384 34.5111 26.5069C34.589 26.5754 34.6686 26.6419 34.7497 26.7064C34.8309 26.771 34.9136 26.8336 34.9978 26.8941C35.082 26.9547 35.1676 27.0131 35.2547 27.0695C35.3417 27.1259 35.4301 27.1801 35.5198 27.2322C35.6095 27.2842 35.7004 27.334 35.7925 27.3817C35.8847 27.4293 35.9779 27.4747 36.0723 27.5178C36.1667 27.5608 36.262 27.6016 36.3583 27.64C36.4547 27.6784 36.5519 27.7145 36.65 27.7481C36.7481 27.7817 36.847 27.813 36.9466 27.8418C37.0462 27.8706 37.1465 27.897 37.2474 27.9211C37.3483 27.945 37.4497 27.9664 37.5517 27.9854C37.6536 28.0044 37.756 28.0209 37.8587 28.0349C37.9615 28.0489 38.0646 28.0604 38.168 28.0694C38.2712 28.0783 38.3747 28.0848 38.4783 28.0887C38.582 28.0926 38.6857 28.094 38.7894 28.0929C38.893 28.0917 38.9967 28.088 39.1002 28.0819C39.205 28.0756 39.3095 28.0667 39.4138 28.0553C39.5181 28.0438 39.6221 28.0299 39.7256 28.0133C39.8293 27.9968 39.9324 27.9776 40.0351 27.956C40.1378 27.9343 40.2398 27.9101 40.3413 27.8834C40.4428 27.8567 40.5436 27.8275 40.6436 27.7958C40.7437 27.7641 40.8429 27.73 40.9412 27.6935C41.0396 27.6569 41.1369 27.6179 41.2333 27.5766C41.3298 27.5351 41.4251 27.4914 41.5194 27.4452C41.6137 27.3992 41.7067 27.3509 41.7985 27.3001C41.8905 27.2494 41.9811 27.1965 42.0703 27.1413C42.1596 27.0862 42.2474 27.0289 42.3338 26.9694C42.4203 26.9098 42.5052 26.8482 42.5886 26.7846C42.672 26.7209 42.7537 26.6551 42.8338 26.5874C42.914 26.5196 42.9924 26.45 43.0691 26.3784C43.1458 26.3068 43.2207 26.2333 43.2938 26.1581C43.3669 26.0828 43.4381 26.0057 43.5072 25.9268C43.5765 25.848 43.6439 25.7675 43.7092 25.6854C43.7744 25.6033 43.8376 25.5196 43.8988 25.4343C43.96 25.349 44.019 25.2623 44.076 25.1742C44.1328 25.086 44.1874 24.9965 44.24 24.9056C44.2924 24.8148 44.3426 24.7226 44.3905 24.6292C44.4383 24.5359 44.4839 24.4414 44.5271 24.3457C44.5704 24.2502 44.6113 24.1536 44.6498 24.056C44.6882 23.9583 44.7243 23.8598 44.7579 23.7604C44.7915 23.661 44.8227 23.5608 44.8513 23.4599C44.88 23.3589 44.9062 23.2573 44.9297 23.1551C44.9533 23.0528 44.9744 22.9501 44.993 22.8468C45.0116 22.7436 45.0276 22.6399 45.0411 22.5358C45.0545 22.4318 45.0654 22.3275 45.0737 22.2229C45.0821 22.1182 45.0878 22.0135 45.0909 21.9086C45.094 21.8038 45.0945 21.6989 45.0925 21.5939C45.0904 21.489 45.0858 21.3842 45.0785 21.2795C45.0713 21.1749 45.0615 21.0705 45.0491 20.9663C45.0367 20.8621 45.0217 20.7582 45.0042 20.6548C44.9867 20.5513 44.9666 20.4483 44.944 20.3458C44.9215 20.2433 44.8964 20.1415 44.8687 20.0403C44.8411 19.939 44.811 19.8386 44.7784 19.7388C44.7458 19.6391 44.7108 19.5402 44.6733 19.4422C44.6359 19.3442 44.596 19.2472 44.5537 19.1512C44.5114 19.0551 44.4668 18.9602 44.4198 18.8663C44.3728 18.7725 44.3236 18.6798 44.2721 18.5884C44.2206 18.497 44.1668 18.407 44.1109 18.3183C44.0548 18.2295 43.9967 18.1422 43.9365 18.0562C43.8761 17.9704 43.8138 17.8861 43.7494 17.8034C43.6849 17.7205 43.6184 17.6393 43.55 17.5598C43.4815 17.4803 43.411 17.4025 43.3388 17.3264C43.2665 17.2504 43.1923 17.1762 43.1163 17.1038C43.0404 17.0314 42.9627 16.9609 42.8833 16.8924C42.8038 16.8238 42.7227 16.7573 42.64 16.6928C42.5572 16.6282 42.473 16.5658 42.3871 16.5054C42.3013 16.445 42.214 16.3868 42.1254 16.3307C42.0367 16.2747 41.9467 16.2208 41.8554 16.1693C41.764 16.1176 41.6714 16.0682 41.5777 16.0211C41.4838 15.9742 41.3889 15.9295 41.2929 15.8871C41.1969 15.8447 41.0999 15.8047 41.0019 15.7671C40.904 15.7295 40.8052 15.6944 40.7055 15.6617C40.6057 15.6291 40.5053 15.5989 40.4041 15.5711C40.3028 15.5433 40.201 15.5181 40.0986 15.4955C39.9961 15.4728 39.8932 15.4526 39.7899 15.435C39.6864 15.4173 39.5826 15.4023 39.4784 15.3898C39.3741 15.3773 39.2697 15.3674 39.1651 15.36C39.0605 15.3526 38.9557 15.3479 38.8507 15.3458C38.7457 15.3436 38.6408 15.344 38.536 15.347C38.4311 15.35 38.3264 15.3556 38.2218 15.3638ZM21.7857 17.9142C21.6799 17.9242 21.5744 17.9368 21.4691 17.952C21.3638 17.9671 21.259 17.9849 21.1547 18.0053C21.0503 18.0256 20.9465 18.0484 20.8432 18.0739C20.74 18.0993 20.6374 18.1272 20.5356 18.1576C20.4337 18.188 20.3326 18.2209 20.2324 18.2563C20.1321 18.2916 20.0328 18.3294 19.9343 18.3697C19.8359 18.4099 19.7385 18.4526 19.6422 18.4976C19.5459 18.5426 19.4507 18.5899 19.3566 18.6395C19.2627 18.6892 19.17 18.7411 19.0784 18.7954C18.9869 18.8496 18.8969 18.906 18.8083 18.9646C18.7195 19.0233 18.6323 19.084 18.5466 19.1469C18.4608 19.2098 18.3767 19.2747 18.2942 19.3417C18.2115 19.4087 18.1306 19.4777 18.0515 19.5487C17.9723 19.6196 17.8949 19.6924 17.8193 19.7672C17.7437 19.8419 17.67 19.9185 17.5981 19.9969C17.5263 20.0752 17.4564 20.1553 17.3885 20.2371C17.3205 20.3189 17.2545 20.4023 17.1907 20.4874C17.1268 20.5724 17.0651 20.6589 17.0055 20.7469C16.9459 20.8349 16.8884 20.9244 16.8332 21.0153C16.7779 21.1061 16.7249 21.1983 16.6742 21.2917C16.6235 21.3851 16.575 21.4797 16.5289 21.5755C16.4829 21.6714 16.4392 21.7683 16.3978 21.8662C16.3564 21.9642 16.3175 22.0631 16.281 22.163C16.2445 22.2628 16.2104 22.3635 16.1788 22.465C16.1473 22.5666 16.1183 22.6688 16.0917 22.7717C16.0651 22.8746 16.041 22.9782 16.0195 23.0824C15.998 23.1865 15.9791 23.2911 15.9627 23.3962C15.9463 23.5012 15.9325 23.6066 15.9213 23.7123C15.91 23.818 15.9014 23.9239 15.8954 24.0301C15.8893 24.1363 15.8859 24.2425 15.885 24.3488C15.8842 24.4551 15.886 24.5614 15.8903 24.6676C15.8947 24.7739 15.9017 24.88 15.9112 24.9859C15.9208 25.0918 15.9329 25.1974 15.9477 25.3027C15.9624 25.4079 15.9797 25.5128 15.9996 25.6172C16.0194 25.7217 16.0418 25.8257 16.0667 25.929C16.0917 26.0324 16.1192 26.1351 16.1492 26.237C16.1792 26.3391 16.2117 26.4403 16.2466 26.5407C16.2815 26.6411 16.3188 26.7407 16.3587 26.8392C16.3985 26.9378 16.4407 27.0353 16.4852 27.1318C16.5298 27.2284 16.5768 27.3238 16.626 27.418C16.6752 27.5123 16.7267 27.6052 16.7805 27.6968C16.8343 27.7886 16.8904 27.8789 16.9487 27.968C17.0069 28.0569 17.0673 28.1444 17.1298 28.2303C17.1923 28.3164 17.2568 28.4008 17.3235 28.4837C17.3901 28.5665 17.4587 28.6477 17.5294 28.7271C17.6 28.8067 17.6725 28.8844 17.7469 28.9603C17.8213 29.0362 17.8976 29.1103 17.9756 29.1825C18.0537 29.2546 18.1334 29.3249 18.2149 29.3932C18.2965 29.4615 18.3796 29.5278 18.4642 29.592C18.549 29.6562 18.6353 29.7184 18.7231 29.7784C18.8108 29.8384 18.9 29.8962 18.9907 29.9518C19.0812 30.0075 19.1731 30.0609 19.2663 30.112C19.3595 30.1631 19.454 30.212 19.5496 30.2585C19.6452 30.305 19.7419 30.3491 19.8397 30.391C19.9375 30.4327 20.0362 30.4721 20.1358 30.509C20.2355 30.546 20.3361 30.5805 20.4375 30.6125C20.5389 30.6445 20.6409 30.674 20.7438 30.7011C20.8466 30.7281 20.95 30.7526 21.0541 30.7746C21.1581 30.7966 21.2626 30.8159 21.3676 30.8327C21.4726 30.8496 21.578 30.8639 21.6836 30.8756C21.7893 30.8873 21.8952 30.8963 22.0013 30.9028C22.1074 30.9094 22.2137 30.9133 22.32 30.9145C22.4264 30.9158 22.5326 30.9145 22.6389 30.9107C22.7451 30.9067 22.8512 30.9002 22.9571 30.8912C23.0637 30.882 23.1699 30.8702 23.2758 30.8559C23.3817 30.8415 23.4873 30.8245 23.5925 30.805C23.6975 30.7853 23.8021 30.7632 23.9062 30.7385C24.0102 30.7138 24.1135 30.6865 24.2163 30.6567C24.3189 30.6269 24.4207 30.5946 24.5218 30.5598C24.623 30.525 24.7231 30.4877 24.8223 30.4478C24.9216 30.4081 25.0198 30.366 25.117 30.3213C25.2141 30.2768 25.3102 30.2299 25.4051 30.1805C25.4999 30.1312 25.5935 30.0796 25.6859 30.0257C25.7782 29.9718 25.8692 29.9156 25.9588 29.8572C26.0482 29.7988 26.1363 29.7382 26.2229 29.6754C26.3095 29.6126 26.3944 29.5478 26.4778 29.481C26.5612 29.414 26.6429 29.3451 26.7229 29.2741C26.8028 29.2032 26.881 29.1303 26.9575 29.0554C27.0339 28.9807 27.1085 28.9041 27.1811 28.8256C27.2537 28.7471 27.3243 28.667 27.393 28.5851C27.4617 28.5031 27.5283 28.4195 27.5928 28.3343C27.6574 28.2491 27.7199 28.1623 27.7802 28.074C27.8404 27.9857 27.8985 27.896 27.9545 27.8048C28.0103 27.7136 28.0639 27.6211 28.1153 27.5274C28.1666 27.4335 28.2156 27.3385 28.2621 27.2423C28.3088 27.1461 28.353 27.0488 28.3949 26.9504C28.4368 26.852 28.4762 26.7527 28.5131 26.6523C28.5501 26.552 28.5846 26.4509 28.6166 26.3488C28.6486 26.2468 28.6781 26.1441 28.705 26.0405C28.7319 25.937 28.7562 25.833 28.778 25.7284C28.7998 25.6237 28.819 25.5186 28.8356 25.4129C28.8523 25.3073 28.8663 25.2013 28.8778 25.0949C28.8891 24.9887 28.8978 24.8822 28.904 24.7754C28.9102 24.6687 28.9138 24.5618 28.9146 24.455C28.9156 24.3481 28.9139 24.2412 28.9095 24.1343C28.9051 24.0274 28.8981 23.9208 28.8885 23.8143C28.8789 23.7079 28.8667 23.6017 28.8518 23.4958C28.837 23.3899 28.8195 23.2844 28.7995 23.1795C28.7795 23.0744 28.7569 22.9699 28.7317 22.866C28.7065 22.7621 28.6788 22.6588 28.6486 22.5563C28.6183 22.4538 28.5855 22.3521 28.5503 22.251C28.515 22.1502 28.4773 22.0502 28.437 21.9511C28.3969 21.852 28.3543 21.754 28.3092 21.657C28.2642 21.56 28.2168 21.4641 28.1672 21.3695C28.1174 21.2748 28.0653 21.1815 28.011 21.0894C27.9567 20.9974 27.9001 20.9067 27.8412 20.8173C27.7825 20.7281 27.7215 20.6403 27.6583 20.554C27.5952 20.4677 27.5301 20.3829 27.4628 20.2999C27.3955 20.2168 27.3262 20.1354 27.2549 20.0558C27.1836 19.976 27.1104 19.8981 27.0353 19.8221C26.9602 19.746 26.8832 19.6718 26.8044 19.5995C26.7256 19.5272 26.6451 19.457 26.5629 19.3887C26.4807 19.3204 26.3968 19.2542 26.3113 19.19C26.2257 19.1257 26.1387 19.0636 26.0501 19.0037C25.9615 18.9438 25.8716 18.8862 25.7802 18.8308C25.6888 18.7752 25.5961 18.722 25.502 18.6711C25.408 18.6201 25.3129 18.5716 25.2164 18.5255C25.12 18.4793 25.0225 18.4354 24.924 18.394C24.8253 18.3526 24.7258 18.3136 24.6253 18.2771C24.5248 18.2406 24.4235 18.2065 24.3213 18.1749C24.2191 18.1434 24.1163 18.1144 24.0127 18.0879C23.9091 18.0615 23.805 18.0376 23.7002 18.0162C23.5954 17.9948 23.4902 17.9761 23.3846 17.96C23.2789 17.9439 23.1728 17.9303 23.0665 17.9193C22.96 17.9084 22.8534 17.9001 22.7467 17.8945C22.6399 17.8887 22.5331 17.8856 22.4262 17.8852C22.3193 17.8848 22.2124 17.887 22.1056 17.8918C21.9988 17.8967 21.8922 17.9041 21.7857 17.9142ZM63.218 26.7415C61.0032 28.1277 57.5124 30.5255 55.187 31.5238C55.5084 33.0302 55.8695 34.8667 56.2795 36.3395C57.3569 36.5351 58.4091 36.8334 59.4663 37.115C61.6022 37.653 63.7417 38.1911 65.8609 38.7913C65.3535 36.0812 64.7307 33.3819 64.1466 30.687L63.5628 27.9951C63.5037 27.7335 63.4334 26.8967 63.218 26.7415ZM48.0763 27.9492C46.8705 28.0968 45.6594 28.397 44.4645 28.6251L27.928 31.838C26.5614 32.1064 25.1577 32.3286 23.8056 32.6529C23.0816 32.8266 22.7278 33.0666 22.9052 33.8552L24.3835 40.4717C24.6054 41.4997 24.6836 44.1849 25.7847 44.3075C26.3729 44.2259 26.9565 44.0856 27.5403 43.9759L47.9537 40.0561C49.3201 39.7902 51.1411 40.0117 50.7996 38.3056L48.9804 29.5758C48.8632 29.0133 48.8965 27.7941 48.0763 27.9492ZM53.4547 31.2429C52.6727 31.4483 51.893 31.6317 51.1063 31.8164C51.2152 32.3953 52.0682 36.7679 52.2455 36.9202L52.4201 36.9132C53.1579 36.6986 53.9039 36.5213 54.6503 36.3395C54.299 34.7503 53.869 33.1545 53.59 31.5528L53.615 31.5259L53.5349 31.5199C53.5274 31.4461 53.5157 31.386 53.5297 31.3132L53.4787 31.24L53.4947 31.3023L53.4547 31.2429ZM42.5293 42.7381C41.5775 42.88 40.638 43.0928 39.6942 43.2784L35.5707 44.0723C34.6362 44.2548 33.6801 44.4764 32.7345 44.5834C32.7728 44.8289 32.8184 45.6036 33.0152 45.7509L33.1613 45.7332C36.3905 45.0802 39.6451 44.5397 42.8685 43.8608C42.8255 43.6854 42.7034 42.8278 42.6235 42.7304L42.5293 42.7381Z" fill="white"/>
<path d="M39.372 17.9464C39.0344 17.9238 37.163 16.5237 37.0469 16.2439C36.93 15.9624 37.2285 15.7508 37.4461 15.6561C37.9477 15.7548 40.8552 17.4718 39.372 17.9464Z" fill="white"/>
<path d="M22.1946 20.432C21.805 20.4724 19.2945 19.0676 20.2996 18.2921C20.5237 18.2821 23.1687 19.4746 22.1946 20.432Z" fill="white"/>
<path d="M39.0203 24.7075C38.9723 24.7113 38.9241 24.7138 38.8758 24.7152C38.8277 24.7166 38.7795 24.7168 38.7312 24.7157C38.6831 24.7147 38.6349 24.7125 38.5868 24.7091C38.5387 24.7058 38.4907 24.7013 38.4428 24.6955C38.395 24.6899 38.3473 24.683 38.2998 24.6749C38.2523 24.6668 38.205 24.6576 38.1579 24.6471C38.1108 24.6368 38.064 24.6253 38.0174 24.6126C37.9709 24.5998 37.9247 24.586 37.8789 24.5711C37.8331 24.5561 37.7876 24.5401 37.7426 24.5229C37.6975 24.5057 37.6529 24.4874 37.6087 24.4681C37.5646 24.4487 37.521 24.4282 37.4778 24.4068C37.4346 24.3852 37.392 24.3626 37.35 24.339C37.308 24.3154 37.2665 24.2907 37.2258 24.265C37.1849 24.2394 37.1447 24.2127 37.1052 24.1851C37.0657 24.1574 37.0268 24.1289 36.9887 24.0994C36.9506 24.0698 36.9132 24.0394 36.8766 24.008C36.84 23.9767 36.8042 23.9444 36.7692 23.9112C36.7341 23.8781 36.7 23.8442 36.6667 23.8094C36.6332 23.7746 36.6007 23.739 36.5691 23.7025C36.5375 23.6661 36.5068 23.629 36.477 23.5911C36.4472 23.5532 36.4184 23.5145 36.3905 23.4751C36.3626 23.4358 36.3357 23.3958 36.3098 23.3552C36.2839 23.3145 36.2589 23.2732 36.235 23.2314C36.2111 23.1895 36.1883 23.1471 36.1665 23.104C36.1447 23.061 36.1239 23.0175 36.1042 22.9735C36.0845 22.9295 36.066 22.8851 36.0484 22.8401C36.0309 22.7952 36.0146 22.7498 35.9993 22.7041C35.9841 22.6583 35.97 22.6122 35.957 22.5658C35.944 22.5194 35.9321 22.4727 35.9214 22.4256C35.9108 22.3786 35.9012 22.3314 35.8928 22.2839C35.8844 22.2364 35.8772 22.1887 35.8712 22.1409C35.8651 22.093 35.8602 22.0451 35.8566 21.997C35.8528 21.949 35.8503 21.9008 35.8491 21.8526C35.8478 21.8044 35.8477 21.7562 35.8487 21.708C35.8498 21.6598 35.852 21.6117 35.8555 21.5635C35.8589 21.5155 35.8635 21.4675 35.8692 21.4197C35.875 21.3717 35.8819 21.324 35.8901 21.2765C35.8982 21.229 35.9075 21.1817 35.9179 21.1346C35.9283 21.0875 35.9399 21.0407 35.9527 20.9943C35.9654 20.9477 35.9793 20.9016 35.9943 20.8558C36.0093 20.81 36.0254 20.7645 36.0427 20.7195C36.0599 20.6744 36.0782 20.6298 36.0976 20.5857C36.1171 20.5416 36.1376 20.498 36.1591 20.4549C36.1807 20.4118 36.2033 20.3692 36.227 20.3271C36.2507 20.2851 36.2754 20.2438 36.301 20.203C36.3267 20.1622 36.3534 20.122 36.3811 20.0825C36.4087 20.043 36.4374 20.0042 36.4669 19.9661C36.4965 19.9281 36.5271 19.8908 36.5585 19.8541C36.5899 19.8176 36.6222 19.7819 36.6553 19.7468C36.6885 19.7118 36.7225 19.6777 36.7573 19.6443C36.7922 19.611 36.8279 19.5786 36.8643 19.547C36.9008 19.5154 36.938 19.4847 36.9759 19.455C37.0138 19.4253 37.0525 19.3964 37.0919 19.3686C37.1313 19.3408 37.1713 19.3139 37.212 19.288C37.2527 19.2622 37.2939 19.2373 37.3358 19.2134C37.3777 19.1896 37.4202 19.1668 37.4633 19.145C37.5063 19.1232 37.5498 19.1025 37.5938 19.083C37.6379 19.0634 37.6824 19.0448 37.7274 19.0273C37.7723 19.0099 37.8176 18.9936 37.8633 18.9784C37.9091 18.9631 37.9553 18.9491 38.0017 18.9361C38.0482 18.9232 38.0949 18.9114 38.1419 18.9007C38.1889 18.8901 38.2362 18.8806 38.2838 18.8722C38.3312 18.8639 38.3788 18.8567 38.4268 18.8508C38.4746 18.8448 38.5225 18.84 38.5706 18.8364C38.6186 18.8327 38.6667 18.8303 38.7147 18.829C38.7629 18.8277 38.811 18.8277 38.8592 18.8288C38.9073 18.8299 38.9554 18.8321 39.0035 18.8356C39.0515 18.8391 39.0994 18.8437 39.1472 18.8495C39.195 18.8553 39.2426 18.8622 39.29 18.8705C39.3375 18.8786 39.3848 18.8879 39.4317 18.8983C39.4787 18.9088 39.5254 18.9204 39.5719 18.9331C39.6183 18.9459 39.6644 18.9598 39.7101 18.9747C39.7559 18.9898 39.8013 19.0059 39.8462 19.0231C39.8912 19.0404 39.9357 19.0588 39.9798 19.0782C40.0238 19.0976 40.0674 19.1181 40.1105 19.1397C40.1535 19.1613 40.196 19.1838 40.238 19.2074C40.2798 19.231 40.3212 19.2557 40.3619 19.2814C40.4026 19.3071 40.4427 19.3337 40.4822 19.3613C40.5216 19.389 40.5603 19.4176 40.5983 19.4472C40.6363 19.4767 40.6736 19.5071 40.7101 19.5385C40.7467 19.5699 40.7825 19.6021 40.8174 19.6352C40.8523 19.6683 40.8864 19.7023 40.9198 19.7371C40.9531 19.7719 40.9855 19.8075 41.017 19.8439C41.0485 19.8803 41.0791 19.9174 41.1089 19.9552C41.1386 19.9931 41.1674 20.0317 41.1952 20.071C41.223 20.1103 41.2498 20.1503 41.2756 20.191C41.3015 20.2315 41.3263 20.2727 41.3503 20.3146C41.3741 20.3565 41.3969 20.3988 41.4187 20.4418C41.4404 20.4847 41.4611 20.5281 41.4806 20.5721C41.5003 20.6161 41.5189 20.6605 41.5364 20.7054C41.5538 20.7503 41.5701 20.7956 41.5854 20.8412C41.6005 20.8869 41.6146 20.933 41.6277 20.9794C41.6406 21.0257 41.6524 21.0724 41.6631 21.1194C41.6737 21.1663 41.6832 21.2134 41.6916 21.2608C41.7 21.3083 41.7072 21.3559 41.7132 21.4037C41.7193 21.4514 41.7241 21.4993 41.7278 21.5473C41.7314 21.5954 41.7339 21.6434 41.7353 21.6915C41.7366 21.7396 41.7367 21.7878 41.7356 21.8359C41.7346 21.8841 41.7324 21.9322 41.729 21.9802C41.7256 22.0283 41.721 22.0762 41.7153 22.1239C41.7095 22.1717 41.7026 22.2194 41.6944 22.2669C41.6864 22.3143 41.6772 22.3615 41.6667 22.4085C41.6564 22.4556 41.6448 22.5023 41.6321 22.5488C41.6194 22.5952 41.6056 22.6413 41.5907 22.687C41.5757 22.7328 41.5596 22.7782 41.5424 22.8231C41.5253 22.8682 41.507 22.9127 41.4875 22.9567C41.4682 23.0008 41.4477 23.0444 41.4262 23.0875C41.4047 23.1306 41.3822 23.1731 41.3586 23.215C41.335 23.257 41.3104 23.2984 41.2848 23.3392C41.2591 23.3799 41.2325 23.42 41.2048 23.4594C41.1773 23.4989 41.1488 23.5377 41.1193 23.5757C41.0897 23.6138 41.0593 23.6511 41.028 23.6876C40.9966 23.7243 40.9644 23.76 40.9315 23.795C40.8984 23.83 40.8644 23.8641 40.8296 23.8975C40.7949 23.9308 40.7593 23.9632 40.7229 23.9948C40.6866 24.0264 40.6495 24.0571 40.6116 24.0869C40.5738 24.1166 40.5353 24.1454 40.496 24.1732C40.4567 24.2011 40.4168 24.228 40.3762 24.254C40.3356 24.2798 40.2944 24.3047 40.2526 24.3286C40.2108 24.3525 40.1685 24.3754 40.1255 24.3971C40.0826 24.4189 40.0392 24.4397 39.9952 24.4594C39.9513 24.4791 39.9069 24.4977 39.8619 24.5152C39.8171 24.5327 39.7719 24.5491 39.7263 24.5643C39.6806 24.5796 39.6346 24.5938 39.5882 24.6068C39.5419 24.6198 39.4952 24.6317 39.4482 24.6423C39.4013 24.6531 39.3541 24.6627 39.3067 24.671C39.2593 24.6794 39.2117 24.6867 39.164 24.6928C39.1162 24.6989 39.0684 24.7038 39.0203 24.7075ZM38.5301 20.4477C38.5085 20.452 38.487 20.4567 38.4657 20.4619C38.4443 20.4673 38.4231 20.4732 38.4021 20.4796C38.381 20.4859 38.36 20.4927 38.3393 20.5001C38.3186 20.5074 38.2981 20.5153 38.2778 20.5238C38.2574 20.5321 38.2373 20.541 38.2174 20.5503C38.1975 20.5597 38.1778 20.5696 38.1585 20.58C38.1391 20.5903 38.1199 20.6011 38.101 20.6123C38.0821 20.6236 38.0635 20.6354 38.0453 20.6477C38.0269 20.6599 38.0089 20.6725 37.9913 20.6855C37.9736 20.6987 37.9562 20.7122 37.9393 20.7262C37.9222 20.7401 37.9055 20.7544 37.8891 20.7691C37.8729 20.784 37.857 20.7991 37.8414 20.8146C37.8258 20.8302 37.8107 20.8462 37.7959 20.8625C37.7811 20.8787 37.7667 20.8953 37.7528 20.9123C37.7388 20.9294 37.7253 20.9467 37.7122 20.9644C37.699 20.9821 37.6864 21.0001 37.6742 21.0183C37.6619 21.0366 37.6502 21.0552 37.639 21.0741C37.6276 21.093 37.6168 21.1121 37.6065 21.1316C37.5961 21.1509 37.5862 21.1705 37.5767 21.1905C37.5673 21.2104 37.5584 21.2304 37.5501 21.2507C37.5416 21.2711 37.5337 21.2917 37.5264 21.3124C37.5189 21.3331 37.512 21.354 37.5057 21.375C37.4993 21.396 37.4934 21.4172 37.4881 21.4386C37.4828 21.4599 37.478 21.4814 37.4738 21.503C37.4696 21.5245 37.4658 21.5462 37.4626 21.568C37.4594 21.5898 37.4568 21.6116 37.4546 21.6335C37.4525 21.6554 37.4509 21.6773 37.4498 21.6993C37.4487 21.7213 37.4483 21.7433 37.4484 21.7653C37.4484 21.7873 37.4489 21.8093 37.45 21.8313C37.4512 21.8532 37.4528 21.8751 37.4549 21.8969C37.4572 21.9189 37.46 21.9408 37.4633 21.9624C37.4665 21.9842 37.4703 22.0059 37.4746 22.0275C37.479 22.049 37.4839 22.0705 37.4892 22.0919C37.4947 22.1132 37.5006 22.1344 37.507 22.1554C37.5134 22.1765 37.5203 22.1973 37.5278 22.2179C37.5353 22.2386 37.5432 22.2591 37.5517 22.2794C37.5602 22.2997 37.5692 22.3198 37.5786 22.3396C37.5881 22.3596 37.5981 22.3792 37.6085 22.3986C37.6189 22.4179 37.6298 22.437 37.6412 22.4559C37.6525 22.4747 37.6643 22.4932 37.6766 22.5115C37.6889 22.5297 37.7016 22.5477 37.7149 22.5653C37.728 22.5829 37.7416 22.6002 37.7556 22.6172C37.7697 22.6341 37.7841 22.6507 37.7988 22.667C37.8136 22.6832 37.8289 22.6991 37.8446 22.7145C37.8602 22.73 37.8762 22.7451 37.8925 22.7599C37.9088 22.7746 37.9255 22.7889 37.9426 22.8028C37.9597 22.8167 37.9771 22.8301 37.9948 22.8431C38.0126 22.8562 38.0306 22.8688 38.049 22.8809C38.0673 22.8931 38.086 22.9048 38.1049 22.916C38.1238 22.9272 38.1429 22.938 38.1624 22.9482C38.1818 22.9586 38.2015 22.9684 38.2215 22.9777C38.2414 22.987 38.2615 22.9958 38.2818 23.0041C38.3022 23.0124 38.3228 23.0202 38.3435 23.0275C38.3643 23.0349 38.3852 23.0417 38.4063 23.048C38.4274 23.0542 38.4487 23.0599 38.47 23.0651C38.4914 23.0704 38.5128 23.0751 38.5344 23.0792C38.5561 23.0835 38.5778 23.0872 38.5996 23.0903C38.6214 23.0934 38.6432 23.0959 38.6651 23.098C38.687 23.1 38.7089 23.1015 38.7309 23.1024C38.7529 23.1034 38.7749 23.1038 38.7969 23.1036C38.8189 23.1035 38.8408 23.1028 38.8627 23.1016C38.8847 23.1004 38.9067 23.0986 38.9285 23.0964C38.9504 23.0941 38.9723 23.0913 38.994 23.0879C39.0157 23.0846 39.0373 23.0807 39.0589 23.0762C39.0804 23.0718 39.1017 23.0669 39.1228 23.0614C39.1441 23.056 39.1651 23.05 39.1859 23.0435C39.2068 23.037 39.2276 23.03 39.2482 23.0225C39.2687 23.015 39.2891 23.007 39.3092 22.9985C39.3294 22.9901 39.3494 22.9811 39.3691 22.9716C39.3888 22.9621 39.4083 22.9522 39.4276 22.9418C39.4468 22.9313 39.4658 22.9204 39.4844 22.9091C39.5031 22.8977 39.5215 22.8859 39.5397 22.8737C39.5578 22.8615 39.5757 22.8488 39.5932 22.8356C39.6107 22.8225 39.6278 22.8089 39.6446 22.7949C39.6615 22.781 39.678 22.7666 39.6941 22.7519C39.7102 22.7371 39.726 22.722 39.7415 22.7064C39.7569 22.6908 39.7719 22.6749 39.7865 22.6586C39.8011 22.6423 39.8153 22.6257 39.8291 22.6087C39.8429 22.5917 39.8562 22.5744 39.8691 22.5568C39.8822 22.5392 39.8947 22.5212 39.9068 22.503C39.9188 22.4847 39.9305 22.4662 39.9417 22.4474C39.9528 22.4286 39.9635 22.4095 39.9737 22.3902C39.984 22.3709 39.9937 22.3513 40.003 22.3314C40.0123 22.3117 40.0211 22.2917 40.0293 22.2714C40.0376 22.2511 40.0454 22.2307 40.0527 22.21C40.06 22.1894 40.0669 22.1687 40.0732 22.1477C40.0794 22.1267 40.0851 22.1056 40.0905 22.0843C40.0957 22.0631 40.1004 22.0417 40.1046 22.0203C40.1087 21.9988 40.1124 21.9772 40.1156 21.9556C40.1187 21.934 40.1213 21.9123 40.1235 21.8905C40.1255 21.8688 40.127 21.8469 40.1281 21.825C40.1291 21.8031 40.1295 21.7813 40.1294 21.7594C40.1294 21.7375 40.1288 21.7156 40.1276 21.6939C40.1266 21.672 40.1249 21.6501 40.1227 21.6284C40.1205 21.6066 40.1178 21.5849 40.1145 21.5633C40.1112 21.5417 40.1074 21.5201 40.1031 21.4986C40.0989 21.4772 40.094 21.4558 40.0886 21.4346C40.0832 21.4134 40.0773 21.3924 40.0709 21.3715C40.0645 21.3505 40.0576 21.3298 40.0503 21.3092C40.0429 21.2886 40.035 21.2682 40.0266 21.248C40.0181 21.2278 40.0092 21.2078 39.9998 21.1881C39.9904 21.1682 39.9806 21.1487 39.9704 21.1295C39.96 21.1101 39.9492 21.0911 39.9378 21.0725C39.9266 21.0537 39.9149 21.0352 39.9028 21.017C39.8906 20.9988 39.8779 20.9809 39.8648 20.9634C39.8518 20.9458 39.8383 20.9285 39.8245 20.9117C39.8106 20.8948 39.7963 20.8782 39.7815 20.862C39.7668 20.8458 39.7517 20.83 39.7362 20.8146C39.7207 20.7991 39.7049 20.784 39.6886 20.7693C39.6724 20.7547 39.6559 20.7404 39.639 20.7265C39.6221 20.7126 39.6049 20.6992 39.5873 20.6862C39.5696 20.6731 39.5518 20.6605 39.5336 20.6484C39.5155 20.6362 39.497 20.6245 39.4782 20.6133C39.4594 20.602 39.4403 20.5912 39.421 20.5809C39.4018 20.5706 39.3823 20.5607 39.3624 20.5513C39.3426 20.542 39.3227 20.5332 39.3025 20.5247C39.2823 20.5164 39.2619 20.5085 39.2413 20.501C39.2207 20.4937 39.2 20.4868 39.179 20.4805C39.1581 20.4741 39.137 20.4682 39.1158 20.4629C39.0945 20.4576 39.0732 20.4528 39.0517 20.4485C39.0302 20.4442 39.0087 20.4404 38.9872 20.4371C38.9655 20.4339 38.9438 20.4312 38.922 20.4291C38.9002 20.4269 38.8784 20.4252 38.8565 20.4241C38.8347 20.4231 38.8129 20.4225 38.791 20.4225C38.7691 20.4224 38.7472 20.4229 38.7253 20.424C38.7035 20.4251 38.6817 20.4266 38.66 20.4286C38.6382 20.4308 38.6164 20.4334 38.5948 20.4366C38.5731 20.4397 38.5515 20.4434 38.5301 20.4477Z" fill="white"/>
<path d="M44.2235 22.9924C43.8312 22.8942 41.0855 21.4753 42.5293 20.818C42.9642 20.9302 45.4192 22.4034 44.2235 22.9924Z" fill="white"/>
<path d="M22.6038 27.2566C22.5554 27.2602 22.5071 27.2627 22.4587 27.2639C22.4102 27.2651 22.3618 27.2651 22.3133 27.2639C22.2648 27.2629 22.2164 27.2605 22.168 27.2569C22.1198 27.2534 22.0716 27.2487 22.0234 27.2428C21.9752 27.2369 21.9273 27.2298 21.8796 27.2215C21.8319 27.2133 21.7843 27.2038 21.737 27.1932C21.6897 27.1826 21.6428 27.1708 21.5961 27.1579C21.5493 27.1449 21.5029 27.1308 21.4569 27.1156C21.4109 27.1004 21.3653 27.084 21.3202 27.0666C21.2749 27.0491 21.2301 27.0305 21.1858 27.0109C21.1415 26.9913 21.0977 26.9705 21.0545 26.9486C21.0112 26.9268 20.9685 26.904 20.9263 26.88C20.8842 26.8561 20.8426 26.8311 20.8017 26.8051C20.7608 26.7791 20.7206 26.7522 20.681 26.7242C20.6414 26.6962 20.6025 26.6673 20.5644 26.6374C20.5263 26.6075 20.4888 26.5767 20.4521 26.545C20.4155 26.5133 20.3797 26.4807 20.3446 26.4471C20.3096 26.4137 20.2755 26.3794 20.2421 26.3442C20.2087 26.309 20.1763 26.2731 20.1448 26.2362C20.1132 26.1995 20.0825 26.162 20.0528 26.1236C20.0231 26.0854 19.9943 26.0464 19.9665 26.0067C19.9386 25.967 19.9118 25.9266 19.8861 25.8856C19.8603 25.8446 19.8355 25.803 19.8116 25.7607C19.7879 25.7184 19.7653 25.6756 19.7436 25.6323C19.7219 25.5889 19.7014 25.545 19.6819 25.5006C19.6624 25.4563 19.644 25.4115 19.6268 25.3663C19.6095 25.3209 19.5934 25.2752 19.5783 25.2292C19.5632 25.183 19.5494 25.1366 19.5367 25.0898C19.524 25.0431 19.5124 24.996 19.5019 24.9487C19.4914 24.9014 19.4822 24.8539 19.4742 24.806C19.4661 24.7582 19.4592 24.7103 19.4535 24.6622C19.4478 24.6141 19.4432 24.5658 19.4399 24.5174C19.4366 24.4691 19.4345 24.4206 19.4335 24.3722C19.4326 24.3237 19.4328 24.2753 19.4343 24.2269C19.4357 24.1784 19.4383 24.13 19.4422 24.0816C19.446 24.0334 19.451 23.9852 19.4572 23.9372C19.4634 23.889 19.4708 23.8411 19.4793 23.7934C19.4879 23.7457 19.4976 23.6983 19.5085 23.651C19.5194 23.6038 19.5314 23.5569 19.5447 23.5102C19.5579 23.4635 19.5723 23.4173 19.5877 23.3713C19.6032 23.3254 19.6198 23.28 19.6376 23.2349C19.6553 23.1897 19.6741 23.145 19.6941 23.1008C19.7141 23.0567 19.7351 23.0131 19.7572 22.97C19.7793 22.9269 19.8024 22.8843 19.8265 22.8422C19.8508 22.8002 19.876 22.7589 19.9021 22.7181C19.9284 22.6773 19.9556 22.6372 19.9838 22.5978C20.012 22.5584 20.0411 22.5197 20.0713 22.4817C20.1014 22.4437 20.1324 22.4065 20.1645 22.37C20.1964 22.3336 20.2292 22.298 20.2628 22.2631C20.2965 22.2283 20.3311 22.1943 20.3664 22.1612C20.4019 22.128 20.4381 22.0958 20.475 22.0645C20.512 22.0331 20.5496 22.0027 20.5881 21.9732C20.6266 21.9437 20.6658 21.9152 20.7056 21.8877C20.7456 21.8601 20.7861 21.8335 20.8272 21.8079C20.8684 21.7824 20.9102 21.7579 20.9526 21.7344C20.995 21.7108 21.0379 21.6883 21.0814 21.667C21.1249 21.6456 21.1689 21.6253 21.2133 21.6061C21.2579 21.5869 21.3028 21.5688 21.3482 21.5518C21.3936 21.5347 21.4394 21.5188 21.4856 21.5041C21.5317 21.4893 21.5782 21.4757 21.6251 21.4632C21.672 21.4509 21.7191 21.4396 21.7665 21.4295C21.8139 21.4193 21.8615 21.4103 21.9094 21.4025C21.9572 21.3948 22.0052 21.3881 22.0534 21.3827C22.1015 21.3772 22.1498 21.373 22.1981 21.37C22.2462 21.367 22.2942 21.3652 22.3423 21.3644C22.3904 21.3638 22.4385 21.3643 22.4866 21.366C22.5346 21.3677 22.5826 21.3706 22.6306 21.3747C22.6785 21.3786 22.7263 21.3838 22.7739 21.3902C22.8216 21.3966 22.8691 21.4041 22.9164 21.4128C22.9637 21.4214 23.0108 21.4313 23.0577 21.4423C23.1045 21.4533 23.151 21.4654 23.1972 21.4788C23.2434 21.492 23.2893 21.5064 23.3349 21.5219C23.3804 21.5373 23.4255 21.5539 23.4703 21.5717C23.515 21.5894 23.5592 21.6082 23.603 21.6282C23.6468 21.6481 23.6901 21.669 23.7329 21.691C23.7756 21.713 23.8178 21.736 23.8594 21.76C23.9011 21.7841 23.9421 21.8092 23.9826 21.8353C24.023 21.8613 24.0627 21.8884 24.1019 21.9165C24.141 21.9445 24.1794 21.9734 24.2171 22.0033C24.2548 22.0332 24.2916 22.064 24.3277 22.0957C24.3639 22.1274 24.3993 22.16 24.4339 22.1934C24.4685 22.2268 24.5022 22.2611 24.5351 22.2962C24.568 22.3312 24.6 22.3671 24.6312 22.4038C24.6624 22.4405 24.6926 22.4778 24.7219 22.516C24.7512 22.5541 24.7796 22.5929 24.8071 22.6324C24.8345 22.6719 24.8609 22.7121 24.8864 22.753C24.9119 22.7938 24.9363 22.8351 24.9597 22.8771C24.9832 22.9192 25.0056 22.9617 25.027 23.0047C25.0483 23.0479 25.0686 23.0915 25.0878 23.1356C25.1071 23.1797 25.1251 23.2242 25.1421 23.2692C25.1592 23.3141 25.1752 23.3595 25.19 23.4053C25.2049 23.451 25.2185 23.4971 25.231 23.5435C25.2436 23.59 25.255 23.6367 25.2653 23.6837C25.2756 23.7306 25.2848 23.7779 25.2928 23.8254C25.3007 23.8728 25.3075 23.9204 25.3132 23.9681C25.3188 24.0159 25.3233 24.0638 25.3266 24.1117C25.3299 24.1597 25.3321 24.2077 25.333 24.2559C25.334 24.3039 25.3338 24.352 25.3324 24.4C25.331 24.4482 25.3284 24.4962 25.3247 24.5442C25.321 24.5921 25.3161 24.6399 25.31 24.6877C25.3039 24.7354 25.2966 24.7829 25.2882 24.8302C25.2798 24.8776 25.2702 24.9248 25.2595 24.9716C25.2487 25.0185 25.2369 25.0651 25.224 25.1114C25.2109 25.1578 25.1968 25.2037 25.1815 25.2493C25.1664 25.2949 25.15 25.3401 25.1325 25.385C25.1151 25.4298 25.0966 25.4742 25.0769 25.5181C25.0573 25.562 25.0366 25.6054 25.0148 25.6483C24.9931 25.6912 24.9704 25.7335 24.9466 25.7753C24.9228 25.8171 24.8979 25.8584 24.8721 25.8989C24.8463 25.9395 24.8195 25.9794 24.7917 26.0187C24.7638 26.0579 24.7351 26.0965 24.7055 26.1344C24.6759 26.1722 24.6453 26.2093 24.6138 26.2457C24.5823 26.2821 24.5499 26.3176 24.5167 26.3523C24.4835 26.3871 24.4495 26.4211 24.4145 26.4542C24.3796 26.4873 24.344 26.5195 24.3076 26.5509C24.271 26.5823 24.2338 26.6128 24.1959 26.6424C24.1579 26.6718 24.1193 26.7005 24.08 26.7282C24.0406 26.7559 24.0006 26.7825 23.96 26.8081C23.9193 26.8339 23.8781 26.8586 23.8362 26.8823C23.7944 26.906 23.7519 26.9286 23.7089 26.9502C23.666 26.9719 23.6225 26.9924 23.5785 27.0119C23.5345 27.0314 23.4901 27.0498 23.4453 27.0671C23.4003 27.0844 23.3551 27.1006 23.3095 27.1156C23.2638 27.1308 23.2177 27.1448 23.1714 27.1576C23.1251 27.1704 23.0784 27.1821 23.0314 27.1927C22.9846 27.2032 22.9374 27.2127 22.89 27.221C22.8426 27.2292 22.795 27.2363 22.7473 27.2423C22.6996 27.2482 22.6517 27.2529 22.6038 27.2566ZM22.1384 22.9993C22.1174 23.003 22.0964 23.0073 22.0755 23.012C22.0546 23.0168 22.0339 23.022 22.0133 23.0278C21.9927 23.0336 21.9723 23.0398 21.952 23.0466C21.9316 23.0534 21.9114 23.0606 21.8914 23.0683C21.8716 23.0761 21.8518 23.0843 21.8322 23.093C21.8126 23.1016 21.7933 23.1108 21.7742 23.1205C21.7551 23.1302 21.7362 23.1402 21.7177 23.1508C21.6991 23.1614 21.6807 23.1724 21.6626 23.1838C21.6445 23.1952 21.6267 23.2071 21.6092 23.2195C21.5917 23.2318 21.5745 23.2445 21.5577 23.2576C21.5408 23.2708 21.5243 23.2843 21.508 23.2983C21.4918 23.3123 21.4759 23.3267 21.4605 23.3414C21.4449 23.3561 21.4297 23.3712 21.415 23.3867C21.4001 23.4022 21.3857 23.418 21.3717 23.4341C21.3577 23.4504 21.3441 23.4669 21.3309 23.4836C21.3176 23.5005 21.3048 23.5176 21.2924 23.535C21.2801 23.5525 21.2681 23.5703 21.2566 23.5884C21.2452 23.6064 21.2341 23.6247 21.2234 23.6433C21.2129 23.6619 21.2027 23.6807 21.193 23.6997C21.1833 23.7188 21.174 23.7381 21.1651 23.7576C21.1564 23.7772 21.1481 23.7969 21.1403 23.8167C21.1325 23.8367 21.1252 23.8568 21.1184 23.8771C21.1115 23.8974 21.1052 23.9179 21.0993 23.9385C21.0935 23.959 21.0882 23.9797 21.0833 24.0006C21.0785 24.0214 21.0742 24.0423 21.0703 24.0634C21.0666 24.0844 21.0633 24.1056 21.0605 24.1268C21.0578 24.1481 21.0555 24.1694 21.0537 24.1907C21.0519 24.212 21.0507 24.2333 21.05 24.2548C21.0493 24.2761 21.0492 24.2975 21.0495 24.3188C21.0498 24.3403 21.0507 24.3617 21.0521 24.3831C21.0534 24.4044 21.0553 24.4257 21.0577 24.447C21.0601 24.4682 21.0631 24.4894 21.0665 24.5105C21.0699 24.5317 21.0738 24.5527 21.0783 24.5736C21.0828 24.5946 21.0878 24.6154 21.0932 24.6361C21.0987 24.6567 21.1046 24.6772 21.1112 24.6976C21.1177 24.7181 21.1247 24.7383 21.1321 24.7583C21.1396 24.7784 21.1476 24.7983 21.156 24.818C21.1643 24.8377 21.1732 24.8571 21.1826 24.8763C21.192 24.8956 21.2019 24.9146 21.2122 24.9333C21.2225 24.9521 21.2332 24.9706 21.2444 24.9888C21.2556 25.007 21.2673 25.025 21.2793 25.0427C21.2914 25.0604 21.3039 25.0777 21.3168 25.0948C21.3297 25.1119 21.3431 25.1286 21.3568 25.1451C21.3705 25.1614 21.3846 25.1775 21.3991 25.1933C21.4136 25.209 21.4285 25.2243 21.4438 25.2392C21.4591 25.2543 21.4747 25.2689 21.4907 25.2831C21.5066 25.2974 21.5229 25.3113 21.5396 25.3248C21.5562 25.3382 21.5732 25.3513 21.5905 25.3638C21.6078 25.3764 21.6254 25.3886 21.6432 25.4004C21.6611 25.4121 21.6793 25.4234 21.6976 25.4343C21.7161 25.4452 21.7348 25.4557 21.7537 25.4657C21.7727 25.4756 21.7919 25.4851 21.8112 25.4942C21.8306 25.5032 21.8503 25.5117 21.8701 25.5198C21.8899 25.528 21.9099 25.5356 21.93 25.5427C21.9502 25.5498 21.9706 25.5564 21.9911 25.5624C22.0117 25.5686 22.0323 25.5743 22.053 25.5794C22.0739 25.5845 22.0948 25.5891 22.1158 25.5932C22.1367 25.5974 22.1578 25.6009 22.1791 25.6039C22.2002 25.607 22.2215 25.6096 22.2428 25.6116C22.2641 25.6136 22.2854 25.6152 22.3067 25.6163C22.3282 25.6172 22.3496 25.6177 22.3709 25.6177C22.3923 25.6176 22.4137 25.617 22.4352 25.6159C22.4565 25.6149 22.4778 25.6133 22.4991 25.6111C22.5204 25.6091 22.5417 25.6065 22.5628 25.6033C22.5915 25.599 22.6201 25.5938 22.6485 25.5876C22.6769 25.5814 22.705 25.5743 22.7329 25.5663C22.7609 25.5583 22.7885 25.5494 22.8159 25.5395C22.8432 25.5297 22.8701 25.519 22.8967 25.5073C22.9233 25.4957 22.9495 25.4832 22.9754 25.4699C23.0011 25.4565 23.0264 25.4423 23.0513 25.4273C23.0762 25.4122 23.1005 25.3964 23.1243 25.3797C23.1481 25.363 23.1713 25.3456 23.194 25.3275C23.2166 25.3093 23.2387 25.2904 23.2601 25.2708C23.2815 25.2512 23.3022 25.2309 23.3223 25.2099C23.3423 25.1889 23.3617 25.1672 23.3804 25.1449C23.399 25.1227 23.4169 25.0999 23.4341 25.0764C23.4511 25.0529 23.4675 25.0289 23.4831 25.0045C23.4986 24.9799 23.5132 24.9549 23.5271 24.9293C23.541 24.9038 23.554 24.8779 23.5662 24.8515C23.5784 24.8251 23.5897 24.7984 23.6001 24.7713C23.6105 24.7442 23.62 24.7167 23.6286 24.689C23.6373 24.6612 23.645 24.6332 23.6517 24.605C23.6584 24.5767 23.6643 24.5483 23.6692 24.5197C23.674 24.4911 23.6779 24.4623 23.6809 24.4333C23.6838 24.4045 23.6859 24.3756 23.6869 24.3465C23.688 24.3175 23.6881 24.2885 23.6873 24.2594C23.6864 24.2305 23.6846 24.2015 23.6818 24.1726C23.679 24.1437 23.6753 24.1149 23.6706 24.0863C23.666 24.0576 23.6604 24.0291 23.6538 24.0008C23.6473 23.9725 23.6398 23.9444 23.6314 23.9167C23.6229 23.8888 23.6136 23.8613 23.6035 23.8342C23.5933 23.807 23.5822 23.7801 23.5702 23.7536C23.5581 23.7273 23.5453 23.7013 23.5316 23.6756C23.5179 23.65 23.5034 23.6249 23.488 23.6002C23.4727 23.5755 23.4565 23.5515 23.4395 23.528C23.4225 23.5044 23.4048 23.4814 23.3863 23.459C23.3679 23.4365 23.3486 23.4147 23.3287 23.3936C23.3088 23.3725 23.2883 23.352 23.267 23.3323C23.2457 23.3125 23.2237 23.2935 23.2012 23.2751C23.1787 23.2567 23.1555 23.2392 23.1318 23.2224C23.1081 23.2055 23.084 23.1895 23.0593 23.1744C23.0345 23.1591 23.0093 23.1447 22.9835 23.1313C22.9578 23.1177 22.9317 23.105 22.9052 23.0932C22.8786 23.0813 22.8517 23.0704 22.8245 23.0603C22.7973 23.0503 22.7697 23.0412 22.7419 23.0329C22.714 23.0247 22.6859 23.0175 22.6575 23.0112C22.6292 23.0047 22.6007 22.9993 22.5719 22.9948C22.5432 22.9903 22.5144 22.9868 22.4855 22.9842C22.4565 22.9817 22.4275 22.9801 22.3985 22.9794C22.3694 22.9788 22.3405 22.9791 22.3115 22.9802C22.2825 22.9815 22.2535 22.9838 22.2246 22.987C22.1957 22.9902 22.167 22.9943 22.1384 22.9993Z" fill="white"/>
<path d="M34.5643 23.6143C34.2798 23.6132 31.9665 22.2924 33.3023 21.571C33.4188 21.5902 35.8736 22.9562 34.5643 23.6143Z" fill="white"/>
<path d="M27.9378 24.9143C27.539 24.8731 24.8505 23.1755 26.1146 22.6247C26.5445 22.654 29.1311 24.3694 27.9378 24.9143Z" fill="white"/>
<path d="M18.5245 26.7415C17.921 26.8081 15.8116 25.2847 16.8142 24.7093C17.3818 24.6678 19.5711 26.1398 18.5245 26.7415Z" fill="white"/>
<path d="M39.8331 27.7377C39.3733 27.7081 36.6947 26.159 37.9212 25.4663C38.1531 25.4686 41.1421 26.9183 39.8331 27.7377Z" fill="white"/>
<path d="M23.8855 30.2616C23.701 30.2481 20.6704 28.6778 22.0766 27.9492C22.4933 27.9347 25.1034 29.6666 23.8855 30.2616Z" fill="white"/>
<path d="M24.6807 34.4282C25.1559 34.3047 25.6367 34.1986 26.1146 34.0858L26.253 34.0783C26.4349 34.253 26.6149 35.3651 26.6894 35.6835C26.1952 35.8424 25.6942 35.9776 25.1939 36.1155L25.0568 36.1355C24.8872 35.9515 24.7365 34.741 24.6807 34.4282Z" fill="white"/>
<path d="M25.382 37.6659C25.937 37.5235 26.4913 37.3728 27.0515 37.2529C27.1255 37.3285 27.4138 38.7108 27.4897 38.9707L25.7847 39.3724C25.6418 38.8054 25.4946 38.2398 25.382 37.6659Z" fill="white"/>
<path d="M29.1656 40.2219C29.7255 40.0795 30.3008 39.9754 30.8661 39.8543L30.9326 39.8532C31.1256 40.0242 31.3463 41.1958 31.4268 41.5179C30.8487 41.6625 30.262 41.7815 29.6803 41.9112H29.5946C29.4327 41.7366 29.2362 40.538 29.1656 40.2219Z" fill="white"/>
<path d="M26.1146 40.96C26.567 40.81 27.0299 40.6916 27.4897 40.5665C27.9441 40.5321 27.9417 42.0263 27.9378 42.3524C27.5081 42.3889 27.106 42.4866 26.6894 42.5894C26.2123 42.6066 26.1593 41.293 26.1146 40.96Z" fill="white"/>
</svg>
